HIERARCHY
ROOT Hips
{
  OFFSET -102.467 93.6631 130.069
  CHANNELS 6 Xposition Yposition Zposition Zrotation Xrotation Yrotation
  JOINT LeftUpLeg
  {
    OFFSET 8.64259 1.95398 -2.38835
    CHANNELS 3 Zrotation Xrotation Yrotation
    JOINT LeftLeg
    {
      OFFSET 43.7702 0 0
      CHANNELS 3 Zrotation Xrotation Yrotation
      JOINT LeftFoot
      {
        OFFSET 40.6238 0 0
        CHANNELS 3 Zrotation Xrotation Yrotation
        JOINT LeftToeBase
        {
          OFFSET 12.7242 0 0
          CHANNELS 3 Zrotation Xrotation Yrotation
          End Site
          {
            OFFSET 0 0 0
          }
        }
      }
    }
  }
  JOINT RightUpLeg
  {
    OFFSET -8.2249 1.95398 -2.59336
    CHANNELS 3 Zrotation Xrotation Yrotation
    JOINT RightLeg
    {
      OFFSET 43.5653 0 0
      CHANNELS 3 Zrotation Xrotation Yrotation
      JOINT RightFoot
      {
        OFFSET 40.6238 0 0
        CHANNELS 3 Zrotation Xrotation Yrotation
        JOINT RightToeBase
        {
          OFFSET 12.7242 0 0
          CHANNELS 3 Zrotation Xrotation Yrotation
          End Site
          {
            OFFSET 0 0 0
          }
        }
      }
    }
  }
  JOINT Spine
  {
    OFFSET 0.165834 0.87714 6.61349
    CHANNELS 3 Zrotation Xrotation Yrotation
    JOINT Spine1
    {
      OFFSET 7.38963 1.71661e-005 0
      CHANNELS 3 Zrotation Xrotation Yrotation
      JOINT Spine2
      {
        OFFSET 11.9445 1.14441e-005 0
        CHANNELS 3 Zrotation Xrotation Yrotation
        JOINT Spine3
        {
          OFFSET 14.7254 4.19617e-005 0
          CHANNELS 3 Zrotation Xrotation Yrotation
          JOINT Spine4
          {
            OFFSET 10.9679 0 0
            CHANNELS 3 Zrotation Xrotation Yrotation
            JOINT RightShoulder
            {
              OFFSET 2.46616 -1.6653 3.69651
              CHANNELS 3 Zrotation Xrotation Yrotation
              JOINT RightArm
              {
                OFFSET 13.0012 0 0
                CHANNELS 3 Zrotation Xrotation Yrotation
                JOINT RightForeArm
                {
                  OFFSET 28.7848 1.52588e-005 0
                  CHANNELS 3 Zrotation Xrotation Yrotation
                  JOINT RightHand
                  {
                    OFFSET 26.5688 1.52588e-005 0
                    CHANNELS 3 Zrotation Xrotation Yrotation
                    End Site
                    {
                      OFFSET 0 0 0
                    }
                  }
                }
              }
            }
            JOINT LeftShoulder
            {
              OFFSET 2.38034 -1.29275 -3.7523
              CHANNELS 3 Zrotation Xrotation Yrotation
              JOINT LeftArm
              {
                OFFSET 16.3182 6.10351e-005 0
                CHANNELS 3 Zrotation Xrotation Yrotation
                JOINT LeftForeArm
                {
                  OFFSET 27.0901 0 0
                  CHANNELS 3 Zrotation Xrotation Yrotation
                  JOINT LeftHand
                  {
                    OFFSET 24.5451 1.52588e-005 0
                    CHANNELS 3 Zrotation Xrotation Yrotation
                    End Site
                    {
                      OFFSET 0 0 0
                    }
                  }
                }
              }
            }
            JOINT Neck
            {
              OFFSET 5.0226 -0.0266342 0
              CHANNELS 3 Zrotation Xrotation Yrotation
              JOINT Head
              {
                OFFSET 6.69363 2.86102e-005 0
                CHANNELS 3 Zrotation Xrotation Yrotation
                End Site
                {
                  OFFSET 0 0 0
                }
              }
            }
          }
        }
      }
    }
  }
}
MOTION
Frames:	15
Frame Time:	0.0416667
13.7642 98.4784 -28.8137 -134.01 -87.4203 -132.677 -174.221 2.87913 91.0583 -15.5592 3.99301 2.00631 67.7515 3.76935 0.28522 29.2573 0.0477623 1.47801 175.833 2.77682 89.4761 -15.0237 -9.91266 -0.0158799 68.6136 -4.8836 0.540792 26.3691 0.800846 1.66172 -0.286823 7.03651 -90.2662 12.8002 -0.696996 -0.448983 1.12936 -0.716076 -0.417867 -21.4061 -0.529838 -0.637698 -1.39348 -0.529836 -0.637699 102.415 -50.7813 -81.782 30.6371 -12.9879 -8.15381 -0.218272 -7.48721 -12.2896 -12.4669 -0.701935 1.39966 -79.9212 -52.1285 93.7915 -29.096 9.10692 -16.9958 0.734972 29.165 -6.18524 -1.45452 -0.0103306 -4.40335 9.85631 0.395864 1.65426 -20.2258 0.496345 -3.37972 
13.7866 98.4939 -28.8366 -136.505 -87.5183 -135.174 -174.321 2.83261 91.0054 -15.4234 4.08634 2.08812 67.6367 3.84513 0.484704 29.5543 -0.011916 1.07342 175.766 2.66141 89.4371 -14.8406 -9.88788 0.043281 68.6759 -4.84599 0.656072 25.7524 0.893693 1.34287 -0.314073 7.0392 -90.2555 12.7871 -0.745945 -0.422051 1.11627 -0.763789 -0.388826 -21.4195 -0.584621 -0.626729 -1.40684 -0.584619 -0.62674 102.37 -50.9098 -81.8521 30.4957 -13.1919 -8.21468 -0.0870523 -7.20653 -12.2839 -12.5243 -0.724787 1.5901 -79.8234 -52.0658 93.9341 -29.082 9.11069 -17.0569 0.819806 29.3803 -6.28202 -1.57374 -0.0129881 -4.343 10.1051 0.258232 1.03515 -20.3159 0.383893 -2.55966 
13.7363 98.4984 -28.8454 -134.241 -87.4117 -132.862 -174.249 2.77287 91.0998 -15.3257 3.97753 2.07088 67.6709 3.74042 0.141277 29.2514 0.0776021 1.89782 175.798 2.78428 89.4938 -15.0222 -9.90812 0.045931 68.5861 -4.74466 0.695777 26.1048 0.886243 1.86222 -0.288003 7.03934 -90.272 12.7955 -0.702044 -0.459883 1.12465 -0.721603 -0.428545 -21.4108 -0.531381 -0.649615 -1.39817 -0.531384 -0.649618 102.428 -50.6572 -81.7616 30.705 -13.0919 -8.19591 -0.143914 -7.54703 -12.1496 -12.5946 -0.726757 1.56949 -79.8449 -52.2221 93.908 -28.9933 9.2299 -17.1595 0.629729 29.2202 -6.09486 -1.29382 -0.0158742 -4.41865 9.92574 0.381314 1.81129 -20.4885 0.465877 -3.46623 
13.7314 98.4899 -28.8537 -133.795 -87.4272 -132.44 -174.224 2.86464 91.0941 -15.4402 3.95202 2.03019 67.7546 3.78629 0.211175 29.2167 0.0557489 1.54262 175.822 2.78555 89.5104 -14.9836 -9.97585 0.0259792 68.6603 -4.89665 0.531743 25.9305 0.896827 1.65833 -0.278136 7.03677 -90.2708 12.7996 -0.681867 -0.459859 1.12879 -0.701446 -0.429406 -21.4066 -0.512148 -0.643524 -1.39397 -0.512141 -0.643528 102.517 -50.7469 -81.6251 30.5334 -13.1576 -8.23272 -0.0730504 -7.38791 -12.1722 -12.732 -0.760081 1.8055 -79.9273 -52.2987 93.7886 -28.8709 9.32106 -17.1097 0.630101 29.0329 -6.22201 -0.979794 -0.0190028 -4.10614 10.0881 0.291545 1.24013 -20.4632 0.364113 -2.49574 
13.7072 98.496 -28.8626 -134.454 -87.3615 -133.14 -174.276 2.72472 91.0563 -15.2828 3.76708 2.08106 67.6664 3.72012 0.0882484 29.1351 0.0502164 1.33233 175.706 2.71981 89.4054 -14.9246 -10.2115 0.126582 68.5932 -4.92172 0.400882 26.1189 0.882978 1.85767 -0.281897 7.03455 -90.2622 12.7848 -0.685288 -0.443053 1.114 -0.704119 -0.412475 -21.4215 -0.520451 -0.628531 -1.40884 -0.520452 -0.628533 102.424 -50.7174 -81.7688 30.5709 -13.244 -8.21198 0.0196703 -7.33901 -12.1512 -13.3073 -0.794027 1.79753 -79.924 -52.2876 93.7929 -28.8751 9.33513 -17.0488 0.647165 29.1871 -6.21597 -0.711864 -0.0223565 -4.27281 10.269 0.24362 0.958209 -20.6098 0.320859 -2.06953 
13.6746 98.5056 -28.8734 -133.874 -87.4402 -132.595 -174.295 2.81946 91.0127 -15.3357 3.86386 2.06582 67.6667 3.76886 0.2369 29.3065 0.0379927 1.41084 175.763 2.82034 89.4454 -14.9672 -10.1589 0.0825261 68.4045 -4.79249 0.380362 26.4809 0.75081 1.47922 -0.282466 7.03605 -90.2727 12.8003 -0.691398 -0.4626 1.12946 -0.711092 -0.431731 -21.406 -0.520409 -0.649008 -1.39331 -0.520408 -0.649012 102.408 -50.5734 -81.7918 30.6612 -13.0527 -8.18878 -0.0442057 -7.27061 -12.2543 -13.3961 -0.789367 1.70682 -79.9438 -52.4916 93.7713 -28.9148 9.15017 -16.9496 0.764929 29.0383 -6.28392 -0.879314 -0.0259555 -4.1976 10.3615 0.226869 1.43336 -20.7568 0.28343 -2.65742 
13.6476 98.4922 -28.8915 -135.579 -87.4262 -134.167 -174.192 2.86638 91.2058 -15.4858 3.99107 2.06983 67.7086 3.70166 0.0360987 29.1103 0.0843464 1.79292 175.82 2.74588 89.5854 -14.9906 -9.87 0.0679259 68.6494 -4.85229 0.604799 25.8952 0.929935 1.84745 -0.285167 7.04454 -90.2865 12.7832 -0.703357 -0.488907 1.11242 -0.724182 -0.457481 -21.4229 -0.523903 -0.677688 -1.4103 -0.5239 -0.677687 102.45 -50.5057 -81.7259 30.6864 -13.2399 -8.27426 -0.0057912 -7.36058 -12.2067 -13.4467 -0.776072 1.56185 -79.9092 -52.5269 93.8235 -28.9999 8.97848 -16.947 0.849046 29.3679 -6.21231 -0.920927 -0.0297891 -4.31646 10.2028 0.229594 0.869421 -20.4101 0.275378 -1.73148 
13.5911 98.4982 -28.8887 -134.823 -87.4816 -133.532 -174.223 2.89251 91.1144 -15.4357 3.94172 2.03623 67.7901 3.78245 0.0790861 29.0064 0.0793015 1.56972 175.817 2.83932 89.5187 -15.0569 -9.93004 0.0422785 68.6677 -4.86407 0.582008 25.9843 0.869456 1.54247 -0.291815 7.03876 -90.2697 12.7923 -0.708547 -0.454724 1.12149 -0.727872 -0.423105 -21.414 -0.53913 -0.646649 -1.40137 -0.539128 -0.646651 102.328 -50.5973 -81.916 30.6821 -13.1389 -8.16326 -0.0748259 -7.23085 -12.3376 -13.1248 -0.76331 1.61886 -79.7687 -52.3476 94.0247 -29.2739 8.87698 -16.869 1.04846 29.5782 -6.38699 -1.18365 -0.0338779 -4.15271 10.0073 0.466554 1.35308 -20.2229 0.529047 -2.65306 
13.5526 98.4874 -28.8758 -136.569 -87.5648 -135.276 -174.201 2.91311 91.1609 -15.4256 4.16743 2.02903 67.5563 3.6896 0.144054 29.5022 0.037917 1.68978 175.876 2.79111 89.586 -15.0546 -9.59611 -0.0274593 68.9098 -4.95436 0.709706 25.5153 1.00842 1.81561 -0.302799 7.04206 -90.27 12.7798 -0.730486 -0.45299 1.10899 -0.749716 -0.420413 -21.4266 -0.560582 -0.651595 -1.41397 -0.560574 -0.651596 102.362 -50.53 -81.8628 30.7456 -13.2834 -8.14453 -0.109491 -7.26498 -12.4721 -12.9535 -0.753897 1.62527 -79.7597 -52.4161 94.0409 -29.1611 8.83262 -16.8557 1.08533 29.5847 -6.45692 -1.64086 -0.0382086 -4.12263 10.2324 0.473022 1.04645 -20.3346 0.523103 -2.08007 
13.4896 98.4938 -28.8765 -137.771 -87.6686 -136.549 -174.253 2.92914 91.1188 -15.3788 3.99258 2.05913 67.7928 3.73994 -0.101836 28.9166 0.0912926 1.60749 175.834 2.86702 89.5568 -15.0829 -9.6039 0.0234275 68.659 -4.87357 0.486912 26.1557 0.890767 1.97492 -0.312588 7.04671 -90.2611 12.779 -0.745674 -0.433172 1.10822 -0.764006 -0.399933 -21.4275 -0.581017 -0.637242 -1.41485 -0.581019 -0.637253 102.27 -50.5294 -82.005 30.821 -13.311 -8.08408 0.048695 -7.04898 -12.3602 -13.5788 -0.799304 1.69762 -79.7623 -52.3767 94.0358 -29.158 8.90142 -16.8255 1.08655 29.3387 -6.55143 -1.51203 -0.0427895 -4.079 10.0956 0.525176 1.7097 -20.2723 0.572493 -3.1272 
13.5122 98.4903 -28.8668 -136.258 -87.629 -134.969 -174.247 2.89977 91.1599 -15.315 4.10126 2.07806 67.6828 3.73109 0.0311385 29.2119 0.0683628 1.70928 175.858 2.8042 89.6033 -14.9786 -9.62295 0.0195952 68.8282 -4.96037 0.597423 25.6098 0.993147 1.85609 -0.295807 7.04948 -90.2643 12.778 -0.71388 -0.443167 1.10718 -0.732684 -0.411318 -21.4284 -0.547694 -0.637227 -1.41574 -0.547686 -0.637221 102.31 -50.5897 -81.944 30.8274 -13.2261 -8.0386 -0.0993858 -7.4135 -12.4172 -13.2422 -0.812976 2.0031 -79.7968 -52.4088 93.9855 -28.9531 8.9548 -16.8039 1.01219 29.1993 -6.55709 -1.34829 -0.0476129 -4.19991 9.96837 0.351483 1.10264 -20.015 0.392878 -2.12176 
13.4807 98.496 -28.8623 -137.019 -87.6547 -135.774 -174.199 2.96659 91.1644 -15.44 4.02562 2.0251 67.6598 3.68469 -0.010742 29.2687 0.0493332 1.52155 175.838 2.84663 89.5676 -15.0448 -9.69097 0.0301293 68.6664 -4.85832 0.531565 26.118 0.884915 1.87087 -0.30114 7.05182 -90.2643 12.7669 -0.724437 -0.442285 1.09606 -0.743194 -0.409975 -21.4395 -0.558027 -0.639558 -1.4269 -0.55802 -0.639557 102.35 -50.5005 -81.8812 30.8647 -13.0986 -8.07823 -0.100525 -7.2332 -12.4167 -12.9743 -0.805089 2.08365 -79.7453 -52.5227 94.0658 -28.8379 9.02028 -16.8128 0.945116 29.1958 -6.46469 -0.727305 -0.0526873 -4.34627 9.98907 0.533296 1.45562 -20.0142 0.551422 -2.55023 
13.4897 98.4844 -28.8487 -137.231 -87.7407 -135.959 -174.271 2.96329 91.1562 -15.3133 4.21982 2.08487 67.6048 3.72612 0.0426575 29.3324 0.0626282 1.80143 175.8 2.83906 89.5764 -14.9661 -9.66747 0.0900376 68.7557 -4.95532 0.504917 25.9007 0.920742 1.78644 -0.301949 7.05142 -90.272 12.7684 -0.729723 -0.456985 1.09761 -0.749121 -0.424434 -21.438 -0.558643 -0.655165 -1.42532 -0.558645 -0.655171 102.462 -50.5086 -81.7082 30.7923 -13.0275 -8.13794 -0.11609 -7.2298 -12.4532 -12.9626 -0.812737 2.16196 -79.8324 -52.6751 93.9422 -28.7113 8.98838 -16.9134 0.791522 28.8412 -6.29887 -1.28392 -0.05803 -4.31617 9.98915 0.37866 1.21533 -20.0802 0.387919 -2.07021 
13.4695 98.5001 -28.844 -137.127 -87.6424 -135.896 -174.205 2.87937 91.1433 -15.3039 4.1529 2.02063 67.6057 3.78066 0.197696 29.291 0.043224 1.46288 175.845 2.91997 89.5422 -15.2153 -9.57092 -0.00130434 68.7113 -4.70025 0.762982 26.0993 0.885046 1.84356 -0.308765 7.04821 -90.2742 12.7552 -0.744375 -0.46048 1.08436 -0.763926 -0.427276 -21.4513 -0.571584 -0.66291 -1.4386 -0.571575 -0.662909 102.42 -50.3743 -81.7716 30.9006 -12.965 -8.12644 -0.139969 -7.22859 -12.4343 -12.8914 -0.798814 2.07548 -79.664 -52.7065 94.1919 -28.7408 9.05308 -16.8577 0.898479 28.9238 -6.48507 -1.19955 -0.0636716 -3.79256 9.95316 0.51752 1.31556 -20.1832 0.52441 -2.21415 
13.485 98.4954 -28.8281 -138.309 -87.7565 -137.021 -174.271 2.96551 91.1791 -15.3764 4.17315 2.10857 67.6135 3.66502 -0.0453018 29.4085 0.0480879 1.70034 175.865 2.85381 89.6247 -15.0342 -9.62456 0.0322277 68.5356 -4.7487 0.522912 26.3932 0.827148 1.88752 -0.313181 7.04621 -90.2862 12.7633 -0.758897 -0.482543 1.09246 -0.779392 -0.448681 -21.4431 -0.578789 -0.688315 -1.43048 -0.578788 -0.688315 102.483 -50.3601 -81.6743 30.7916 -13.1444 -8.15313 -0.0980511 -7.2345 -12.4572 -12.8312 -0.809764 2.21249 -79.8133 -52.7636 93.9736 -28.5934 9.08208 -16.8783 0.839511 29.0701 -6.47798 -1.3614 -0.0695351 -3.82706 9.78293 0.431587 1.28766 -19.8932 0.422877 -2.07365 
